<svg width="28" height="28" viewBox="0 0 28 28" fill="none" xmlns="http://www.w3.org/2000/svg">
<path d="M12.75 4H4C3.33696 4 2.70107 4.26339 2.23223 4.73223C1.76339 5.20107 1.5 5.83696 1.5 6.5V24C1.5 24.663 1.76339 25.2989 2.23223 25.7678C2.70107 26.2366 3.33696 26.5 4 26.5H21.5C22.163 26.5 22.7989 26.2366 23.2678 25.7678C23.7366 25.2989 24 24.663 24 24V15.25" stroke="#094067" stroke-width="2" stroke-linecap="round" stroke-linejoin="round"/>
<path d="M22.125 2.12499C22.6223 1.62771 23.2967 1.34834 24 1.34834C24.7033 1.34834 25.3777 1.62771 25.875 2.12499C26.3723 2.62227 26.6517 3.29673 26.6517 3.99999C26.6517 4.70325 26.3723 5.37771 25.875 5.87499L14 17.75L9 19L10.25 14L22.125 2.12499Z" stroke="#094067" stroke-width="2" stroke-linecap="round" stroke-linejoin="round"/>
</svg>
